<?xml version="1.0" encoding="UTF-8" standalone="no"?>
<svg
   xmlns:dc="http://purl.org/dc/elements/1.1/"
   xmlns:cc="http://creativecommons.org/ns#"
   xmlns:rdf="http://www.w3.org/1999/02/22-rdf-syntax-ns#"
   xmlns:svg="http://www.w3.org/2000/svg"
   xmlns="http://www.w3.org/2000/svg"
   xmlns:sodipodi="http://sodipodi.sourceforge.net/DTD/sodipodi-0.dtd"
   xmlns:inkscape="http://www.inkscape.org/namespaces/inkscape"
   version="1.1"
   width="147.60001"
   height="81"
   id="svg66"
   sodipodi:docname="base-grove-sensor-Analogue.svg"
   inkscape:version="0.92.3 (2405546, 2018-03-11)">
  <defs
     id="defs70" />
  <sodipodi:namedview
     pagecolor="#ffffff"
     bordercolor="#666666"
     borderopacity="1"
     objecttolerance="10"
     gridtolerance="10"
     guidetolerance="10"
     inkscape:pageopacity="0"
     inkscape:pageshadow="2"
     inkscape:window-width="1920"
     inkscape:window-height="1028"
     id="namedview68"
     showgrid="false"
     inkscape:zoom="9.647696"
     inkscape:cx="85.71832"
     inkscape:cy="32.78475"
     inkscape:window-x="1912"
     inkscape:window-y="-8"
     inkscape:window-maximized="1"
     inkscape:current-layer="svg66" />
  <metadata
     id="metadata13579">
    <rdf:RDF>
      <cc:Work
         rdf:about="">
        <dc:format>image/svg+xml</dc:format>
        <dc:type
           rdf:resource="http://purl.org/dc/dcmitype/StillImage" />
        <dc:title></dc:title>
      </cc:Work>
    </rdf:RDF>
  </metadata>
  <g
     transform="translate(0,-971.3597)"
     id="layer1">
    <g
       id="g4758"
       transform="matrix(0,1,-1,0,1054.566,976.43782)">
      <path
         id="rect2992"
         d="M 2.8125,-64.25 C 1.2421101,-64.25 0,-63.00789 0,-61.4375 l 0,27 c -3.0996601,0 -5.625,2.4941 -5.625,5.59375 0,3.09966 2.5253399,5.625 5.625,5.625 L 0,-11.125 0,3.78125 0,9.40625 0,20.75 0,36.40625 c 3.0996591,0 5.59375,2.5254 5.59375,5.625 0,3.0997 -2.4940909,5.59375 -5.59375,5.59375 l 0,27 c 0,1.5704 1.2421062,2.8125 2.8125,2.8125 l 27,0 c 0,3.0996 2.525341,5.625 5.625,5.625 3.099659,0 5.59375,-2.5254 5.59375,-5.625 l 27,0 c 1.570394,0 2.8125,-1.2421 2.8125,-2.8125 l 0,-27 c -3.099659,0 -5.59375,-2.49405 -5.59375,-5.59375 0,-3.0996 2.494091,-5.625 5.59375,-5.625 l 0,-12.09375 0,-14.90625 0,-5.625 0,-18.4375 0,-8.5625 c 3.0996,0 5.625,-2.52534 5.625,-5.625 0,-3.09965 -2.5254,-5.59375 -5.625,-5.59375 l 0,-27 c 0,-1.57039 -1.2421,-2.8125 -2.8125,-2.8125 l -27,0 c 0,3.09966 -2.49405,5.59375 -5.59375,5.59375 -3.0996,0 -5.625,-2.49409 -5.625,-5.59375 l -27,0 z M 0,-32.09375 c 1.7945401,0 3.25,1.45547 3.25,3.25 0,1.79454 -1.4554599,3.25 -3.25,3.25 -1.79454,0 -3.25,-1.45546 -3.25,-3.25 0,-1.79453 1.45546,-3.25 3.25,-3.25 z m 70.84375,0 c 1.7945,0 3.25,1.45547 3.25,3.25 0,1.79454 -1.4555,3.25 -3.25,3.25 -1.7946,0 -3.21875,-1.45546 -3.21875,-3.25 0,-1.79453 1.42415,-3.25 3.21875,-3.25 z M 35.4375,74.21875 c 1.794539,0 3.25,1.42415 3.25,3.21875 0,1.7945 -1.455461,3.25 -3.25,3.25 -1.794539,0 -3.25,-1.4555 -3.25,-3.25 0,-1.7946 1.455461,-3.21875 3.25,-3.21875 z"
         transform="translate(0,971.3597)"
         fill="#274a88" />
      <g
         id="g102"
         transform="matrix(0,-1.2499976,1.2499976,0,-1259.9704,1062.5138)">
        <path
           id="connector3pin"
           d="m 15.662983,1029.8187 0,-2.2677 2.267515,0 0,2.2677 -2.267515,0 z"
           fill="#ffe500" />
        <path
           id="connector2pin"
           d="m 17.930539,1033.1832 0,2.2677 -2.267556,0 0,-2.2677 2.267556,0 z"
           fill="#ffe500" />
        <path
           id="connector1pin"
           d="m 15.662983,1038.9076 2.267515,0 0,2.2677 -2.267515,0 0,-2.2677 z"
           fill="#ffe500" />
        <path
           id="connector0pin"
           d="m 15.662983,1044.5859 2.267515,0 0,2.2677 -2.267515,0 0,-2.2677 z"
           fill="#ffe500" />
      </g>
      <text
         id="tspan11445"
         x="33.579144"
         y="-29.868372"
         font-size="3.2"
         transform="matrix(0,-1.25,1.25,0,86.101169,1081.3743)"
         style="font-size:3.20000005px;font-family:OCRA;fill:#ffffff">A0</text>
      <text
         id="tspan11445-6"
         x="33.579144"
         y="-35.621315"
         font-size="3.2"
         transform="matrix(0,-1.25,1.25,0,86.101169,1081.3743)"
         style="font-size:3.20000005px;font-family:OCRA;fill:#ffffff">NC</text>
      <text
         id="tspan11445-1"
         x="33.579144"
         y="-41.37426"
         font-size="3.2"
         transform="matrix(0,-1.25,1.25,0,86.101169,1081.3743)"
         style="font-size:3.20000005px;font-family:OCRA;fill:#ffffff">VCC</text>
      <text
         id="tspan11445-7"
         x="33.579144"
         y="-47.127209"
         font-size="3.2"
         transform="matrix(0,-1.25,1.25,0,86.101169,1081.3743)"
         style="font-size:3.20000005px;font-family:OCRA;fill:#ffffff">GND</text>
      <text
         id="tspan11445-74"
         x="33.579144"
         y="-29.868372"
         font-size="3.2"
         transform="matrix(0,-1.25,1.25,0,100.2744,1042.3979)"
         style="font-size:3.20000005px;font-family:OCRA;fill:#ffffff">Grove -Analogue</text>
    </g>
    <g
       id="g4901"
       transform="matrix(1 0 0 1 26.560003 993.42819)" />
  </g>
  <g
     transform="translate(63.24064,24.209926)"
     id="breadboard">
    <g
       id="g72">
      <g
         id="g34" />
      <g
         id="g38" />
      <g
         id="g42" />
      <g
         id="g46" />
      <g
         id="g50" />
      <g
         id="g54" />
      <g
         id="g58" />
      <g
         id="g62" />
      <g
         id="g66" />
      <g
         id="g70" />
    </g>
  </g>
  <text
     xml:space="preserve"
     style="font-style:normal;font-weight:normal;font-size:40px;line-height:1.25;font-family:sans-serif;letter-spacing:0px;word-spacing:0px;fill:#000000;fill-opacity:1;stroke:none"
     x="34.930618"
     y="36.533428"
     id="text34"><tspan
       sodipodi:role="line"
       id="tspan32"
       x="34.930618"
       y="36.533428"
       style="font-size:26.66666603px;fill:#ffffff">Sensor</tspan></text>
  <text
     xml:space="preserve"
     style="font-style:normal;font-weight:normal;font-size:40px;line-height:1.25;font-family:sans-serif;letter-spacing:0px;word-spacing:0px;fill:#000000;fill-opacity:1;stroke:none"
     x="21.974159"
     y="60.269661"
     id="text38"><tspan
       sodipodi:role="line"
       id="tspan36"
       x="21.974159"
       y="60.269661"
       style="font-size:26.66666603px;fill:#ffffff">Analogue</tspan></text>
</svg>
