<?xml version="1.0" encoding="UTF-8" standalone="no"?>
<svg
   xmlns:dc="http://purl.org/dc/elements/1.1/"
   xmlns:cc="http://creativecommons.org/ns#"
   xmlns:rdf="http://www.w3.org/1999/02/22-rdf-syntax-ns#"
   xmlns:svg="http://www.w3.org/2000/svg"
   xmlns="http://www.w3.org/2000/svg"
   xmlns:sodipodi="http://sodipodi.sourceforge.net/DTD/sodipodi-0.dtd"
   xmlns:inkscape="http://www.inkscape.org/namespaces/inkscape"
   version="1.1"
   width="147.60001"
   height="81"
   id="svg66"
   sodipodi:docname="DHT11.svg"
   inkscape:version="0.92.3 (2405546, 2018-03-11)">
  <defs
     id="defs70" />
  <sodipodi:namedview
     pagecolor="#ffffff"
     bordercolor="#666666"
     borderopacity="1"
     objecttolerance="10"
     gridtolerance="10"
     guidetolerance="10"
     inkscape:pageopacity="0"
     inkscape:pageshadow="2"
     inkscape:window-width="1680"
     inkscape:window-height="1028"
     id="namedview68"
     showgrid="false"
     inkscape:zoom="6.8219513"
     inkscape:cx="92.193636"
     inkscape:cy="31.511463"
     inkscape:window-x="3832"
     inkscape:window-y="-8"
     inkscape:window-maximized="1"
     inkscape:current-layer="svg66" />
  <metadata
     id="metadata13579">
    <rdf:RDF>
      <cc:Work
         rdf:about="">
        <dc:format>image/svg+xml</dc:format>
        <dc:type
           rdf:resource="http://purl.org/dc/dcmitype/StillImage" />
        <dc:title />
      </cc:Work>
    </rdf:RDF>
  </metadata>
  <g
     transform="translate(0,-971.3597)"
     id="layer1">
    <g
       id="g4758"
       transform="matrix(0,1,-1,0,1054.566,976.43782)">
      <path
         id="rect2992"
         d="M 2.8125,-64.25 C 1.2421101,-64.25 0,-63.00789 0,-61.4375 l 0,27 c -3.0996601,0 -5.625,2.4941 -5.625,5.59375 0,3.09966 2.5253399,5.625 5.625,5.625 L 0,-11.125 0,3.78125 0,9.40625 0,20.75 0,36.40625 c 3.0996591,0 5.59375,2.5254 5.59375,5.625 0,3.0997 -2.4940909,5.59375 -5.59375,5.59375 l 0,27 c 0,1.5704 1.2421062,2.8125 2.8125,2.8125 l 27,0 c 0,3.0996 2.525341,5.625 5.625,5.625 3.099659,0 5.59375,-2.5254 5.59375,-5.625 l 27,0 c 1.570394,0 2.8125,-1.2421 2.8125,-2.8125 l 0,-27 c -3.099659,0 -5.59375,-2.49405 -5.59375,-5.59375 0,-3.0996 2.494091,-5.625 5.59375,-5.625 l 0,-12.09375 0,-14.90625 0,-5.625 0,-18.4375 0,-8.5625 c 3.0996,0 5.625,-2.52534 5.625,-5.625 0,-3.09965 -2.5254,-5.59375 -5.625,-5.59375 l 0,-27 c 0,-1.57039 -1.2421,-2.8125 -2.8125,-2.8125 l -27,0 c 0,3.09966 -2.49405,5.59375 -5.59375,5.59375 -3.0996,0 -5.625,-2.49409 -5.625,-5.59375 l -27,0 z M 0,-32.09375 c 1.7945401,0 3.25,1.45547 3.25,3.25 0,1.79454 -1.4554599,3.25 -3.25,3.25 -1.79454,0 -3.25,-1.45546 -3.25,-3.25 0,-1.79453 1.45546,-3.25 3.25,-3.25 z m 70.84375,0 c 1.7945,0 3.25,1.45547 3.25,3.25 0,1.79454 -1.4555,3.25 -3.25,3.25 -1.7946,0 -3.21875,-1.45546 -3.21875,-3.25 0,-1.79453 1.42415,-3.25 3.21875,-3.25 z M 35.4375,74.21875 c 1.794539,0 3.25,1.42415 3.25,3.21875 0,1.7945 -1.455461,3.25 -3.25,3.25 -1.794539,0 -3.25,-1.4555 -3.25,-3.25 0,-1.7946 1.455461,-3.21875 3.25,-3.21875 z"
         transform="translate(0,971.3597)"
         fill="#274a88" />
      <g
         id="g102"
         transform="matrix(0,-1.2499976,1.2499976,0,-1259.9704,1062.5138)">
        <path
           id="connector3pin"
           d="m 15.662983,1029.8187 0,-2.2677 2.267515,0 0,2.2677 -2.267515,0 z"
           fill="#ffe500" />
        <path
           id="connector2pin"
           d="m 17.930539,1033.1832 0,2.2677 -2.267556,0 0,-2.2677 2.267556,0 z"
           fill="#ffe500" />
        <path
           id="connector1pin"
           d="m 15.662983,1038.9076 2.267515,0 0,2.2677 -2.267515,0 0,-2.2677 z"
           fill="#ffe500" />
        <path
           id="connector0pin"
           d="m 15.662983,1044.5859 2.267515,0 0,2.2677 -2.267515,0 0,-2.2677 z"
           fill="#ffe500" />
      </g>
      <text
         id="tspan11445"
         x="33.579144"
         y="-29.868372"
         font-size="3.2"
         transform="matrix(0,-1.25,1.25,0,86.101169,1081.3743)"
         style="font-size:3.20000005px;font-family:OCRA;fill:#ffffff">SIG</text>
      <text
         id="tspan11445-6"
         x="33.579144"
         y="-35.621315"
         font-size="3.2"
         transform="matrix(0,-1.25,1.25,0,86.101169,1081.3743)"
         style="font-size:3.20000005px;font-family:OCRA;fill:#ffffff">NC</text>
      <text
         id="tspan11445-1"
         x="33.579144"
         y="-41.37426"
         font-size="3.2"
         transform="matrix(0,-1.25,1.25,0,86.101169,1081.3743)"
         style="font-size:3.20000005px;font-family:OCRA;fill:#ffffff">VCC</text>
      <text
         id="tspan11445-7"
         x="33.579144"
         y="-47.127209"
         font-size="3.2"
         transform="matrix(0,-1.25,1.25,0,86.101169,1081.3743)"
         style="font-size:3.20000005px;font-family:OCRA;fill:#ffffff">GND</text>
      <text
         id="tspan11445-74"
         x="33.579144"
         y="-29.868372"
         font-size="3.2"
         transform="matrix(0,-1.25,1.25,0,100.2744,1042.3979)"
         style="font-size:3.20000005px;font-family:OCRA;fill:#ffffff">Grove -Humidity&amp;Temperature</text>
    </g>
    <g
       id="g4901"
       transform="matrix(1 0 0 1 26.560003 993.42819)" />
  </g>
  <g
     transform="translate(63.24064,24.209926)"
     id="breadboard">
    <g
       id="g72">
      <g
         id="g34" />
      <g
         id="g38" />
      <g
         id="g42" />
      <g
         id="g46" />
      <g
         id="g50" />
      <g
         id="g54" />
      <g
         id="g58" />
      <g
         id="g62" />
      <g
         id="g66" />
      <g
         id="g70" />
    </g>
  </g>
  <g
     transform="rotate(90,548.26925,555.00611)"
     id="layer4"
     style="display:inline">
    <g
       id="breadboard-2">
      <rect
         width="45"
         height="54.900002"
         rx="2.25"
         x="9"
         y="970.45978"
         transform="translate(0,0.00243)"
         id="rect5185"
         style="display:inline;fill:#343434;fill-opacity:1;fill-rule:evenodd;stroke:#000000;stroke-width:0.18000001;stroke-miterlimit:4;stroke-dasharray:none;stroke-opacity:1" />
      <rect
         width="2.7"
         height="18"
         x="16.65"
         y="1025.3597"
         transform="translate(0,0.00243)"
         id="rect5470"
         style="display:inline;fill:#b3b3b3;fill-opacity:1;fill-rule:evenodd;stroke:none" />
      <rect
         width="2.7"
         height="18"
         x="25.65"
         y="1025.3596"
         transform="translate(0,0.00243)"
         id="rect5476"
         style="display:inline;fill:#b3b3b3;fill-opacity:1;fill-rule:evenodd;stroke:none" />
      <rect
         width="2.7"
         height="18"
         x="34.650002"
         y="1025.3596"
         transform="translate(0,0.00243)"
         id="rect5478"
         style="display:inline;fill:#b3b3b3;fill-opacity:1;fill-rule:evenodd;stroke:none" />
      <rect
         width="2.7"
         height="18"
         x="43.650002"
         y="1025.3596"
         transform="translate(0,0.00243)"
         id="rect5480"
         style="display:inline;fill:#b3b3b3;fill-opacity:1;fill-rule:evenodd;stroke:none" />
      <rect
         width="3.5999999"
         height="3.5999999"
         x="16.200001"
         y="1041.5597"
         transform="translate(0,0.00243)"
         id="connector1"
         style="display:inline;fill:none;stroke:none" />
      <rect
         width="3.5999999"
         height="3.5999999"
         x="25.200001"
         y="1041.5597"
         transform="translate(0,0.00243)"
         id="connector2"
         style="display:inline;fill:none;stroke:none" />
      <rect
         width="3.5999999"
         height="3.5999999"
         x="34.200001"
         y="1041.5597"
         transform="translate(0,0.00243)"
         id="connector3"
         style="display:inline;fill:none;stroke:none" />
      <rect
         width="3.5999999"
         height="3.5999999"
         x="43.200001"
         y="1041.5597"
         transform="translate(0,0.00243)"
         id="connector4"
         style="display:inline;fill:none;stroke:none" />
      <rect
         width="21.15"
         height="30.15"
         x="14.85"
         y="977.21216"
         id="rect5401"
         style="display:inline;fill:#d7f4ee;fill-opacity:0.63586958;fill-rule:evenodd;stroke:#000000;stroke-width:0.28636551;stroke-linecap:round;stroke-linejoin:miter;stroke-miterlimit:4;stroke-dasharray:none;stroke-opacity:1" />
      <rect
         width="43.200001"
         height="53.099998"
         rx="1.7632651"
         x="9.8999996"
         y="971.36218"
         id="rect5406"
         style="display:inline;fill:none;stroke:#316691;stroke-width:1.79999995;stroke-linecap:round;stroke-linejoin:miter;stroke-miterlimit:4;stroke-dasharray:none;stroke-opacity:1" />
      <path
         inkscape:connector-curvature="0"
         d="m 11.25,970.46875 c -1.2465,0 -2.2499997,1.0035 -2.2499997,2.25 v 11.25 H 18 v 3.59375 H 9.0000003 v 3.59375 H 18 V 994.75 H 9.0000003 v 3.625 H 18 v 3.5937 H 9.0000003 v 3.5938 H 18 v 3.5937 H 9.0000003 v 3.5938 H 18 v 3.625 H 9.0000003 v 6.75 c 0,1.2465 1.0034997,2.25 2.2499997,2.25 h 40.5 c 1.2465,0 2.25,-1.0035 2.25,-2.25 v -6.75 h -9 v -3.625 h 9 v -3.5938 h -9 v -3.5937 h 9 v -3.5938 h -9 v -3.5937 h 9 v -3.625 h -9 v -3.59375 h 9 v -3.59375 h -9 v -3.59375 h 9 v -11.25 c 0,-1.2465 -1.0035,-2.25 -2.25,-2.25 H 40.5 v 9 h -3.59375 v -9 H 33.3125 v 9 h -3.625 v -9 h -3.59375 v 9 H 22.5 v -9 z m 11.25,13.5 h 3.59375 v 3.59375 H 22.5 Z m 7.1875,0 h 3.625 v 3.59375 h -3.625 z m 7.21875,0 H 40.5 v 3.59375 H 36.90625 Z M 22.5,991.15625 h 3.59375 V 994.75 H 22.5 Z m 7.1875,0 h 3.625 V 994.75 h -3.625 z m 7.21875,0 H 40.5 V 994.75 H 36.90625 Z M 22.5,998.375 h 3.59375 v 3.5937 H 22.5 Z m 7.1875,0 h 3.625 v 3.5937 h -3.625 z m 7.21875,0 H 40.5 v 3.5937 H 36.90625 Z M 22.5,1005.5625 h 3.59375 v 3.5937 H 22.5 Z m 7.1875,0 h 3.625 v 3.5937 h -3.625 z m 7.21875,0 H 40.5 v 3.5937 H 36.90625 Z M 22.5,1012.75 h 3.59375 v 3.625 H 22.5 Z m 7.1875,0 h 3.625 v 3.625 h -3.625 z m 7.21875,0 H 40.5 v 3.625 h -3.59375 z"
         id="rect4672"
         style="display:inline;fill:#48a1d1;fill-opacity:1;fill-rule:evenodd;stroke:#000000;stroke-width:0.18000001;stroke-miterlimit:4;stroke-dasharray:none;stroke-opacity:1" />
      <g
         transform="translate(3.3378601e-7,9)"
         id="g5460"
         style="stroke:#ffffff;stroke-width:0.63;stroke-miterlimit:4;stroke-dasharray:none;stroke-opacity:0.70652173">
        <path
           inkscape:connector-curvature="0"
           d="m 11.25,962.36218 h 9.45 m -10.8,1.34998 c 0,-0.74559 0.604416,-1.35 1.35,-1.35 M 9.9,974.06218 v -10.35"
           id="path5415"
           style="fill:none;stroke:#ffffff;stroke-width:0.63;stroke-linecap:round;stroke-linejoin:miter;stroke-miterlimit:4;stroke-dasharray:none;stroke-opacity:0.70652173" />
        <path
           inkscape:connector-curvature="0"
           d="m 9.9,979.46218 v 1.8"
           id="path5422"
           style="fill:none;stroke:#ffffff;stroke-width:0.63;stroke-linecap:round;stroke-linejoin:miter;stroke-miterlimit:4;stroke-dasharray:none;stroke-opacity:0.70652173" />
        <path
           inkscape:connector-curvature="0"
           d="m 9.9,986.66218 v 1.8"
           id="path5426"
           style="color:#000000;display:inline;overflow:visible;visibility:visible;fill:none;stroke:#ffffff;stroke-width:0.63;stroke-linecap:round;stroke-linejoin:miter;stroke-miterlimit:4;stroke-dasharray:none;stroke-dashoffset:0;stroke-opacity:0.70652173;marker:none;enable-background:accumulate" />
        <path
           inkscape:connector-curvature="0"
           d="m 9.9,993.86218 v 1.8"
           id="path5428"
           style="color:#000000;display:inline;overflow:visible;visibility:visible;fill:none;stroke:#ffffff;stroke-width:0.63;stroke-linecap:round;stroke-linejoin:miter;stroke-miterlimit:4;stroke-dasharray:none;stroke-dashoffset:0;stroke-opacity:0.70652173;marker:none;enable-background:accumulate" />
        <path
           inkscape:connector-curvature="0"
           d="m 9.9,1001.0622 v 1.8"
           id="path5430"
           style="color:#000000;display:inline;overflow:visible;visibility:visible;fill:none;stroke:#ffffff;stroke-width:0.63;stroke-linecap:round;stroke-linejoin:miter;stroke-miterlimit:4;stroke-dasharray:none;stroke-dashoffset:0;stroke-opacity:0.70652173;marker:none;enable-background:accumulate" />
        <path
           inkscape:connector-curvature="0"
           d="m 9.9,1008.7122 v 4.5"
           id="path5432"
           style="color:#000000;display:inline;overflow:visible;visibility:visible;fill:none;stroke:#ffffff;stroke-width:0.63;stroke-linecap:round;stroke-linejoin:miter;stroke-miterlimit:4;stroke-dasharray:none;stroke-dashoffset:0;stroke-opacity:0.70652173;marker:none;enable-background:accumulate" />
      </g>
      <g
         transform="translate(3.3378601e-7,9)"
         id="g5510"
         style="stroke:#000000;stroke-opacity:0.06521738">
        <path
           inkscape:connector-curvature="0"
           d="m 53.1,1014.1122 v -5.85 m 0,5.85 c 0,0.7456 -0.604416,1.35 -1.35,1.35 m -5.85,0 h 5.85"
           id="path5498"
           style="color:#000000;display:inline;overflow:visible;visibility:visible;fill:none;stroke:#000000;stroke-width:0.44999999;stroke-linecap:round;stroke-linejoin:miter;stroke-miterlimit:4;stroke-dasharray:none;stroke-dashoffset:0;stroke-opacity:0.06521738;marker:none;enable-background:accumulate" />
        <path
           inkscape:connector-curvature="0"
           d="m 53.1,1002.8622 v -1.8"
           id="path5502"
           style="color:#000000;display:inline;overflow:visible;visibility:visible;fill:none;stroke:#000000;stroke-width:0.44999999;stroke-linecap:round;stroke-linejoin:miter;stroke-miterlimit:4;stroke-dasharray:none;stroke-dashoffset:0;stroke-opacity:0.06521738;marker:none;enable-background:accumulate" />
        <path
           inkscape:connector-curvature="0"
           d="m 53.1,995.66218 v -1.8"
           id="path5504"
           style="color:#000000;display:inline;overflow:visible;visibility:visible;fill:none;stroke:#000000;stroke-width:0.44999999;stroke-linecap:round;stroke-linejoin:miter;stroke-miterlimit:4;stroke-dasharray:none;stroke-dashoffset:0;stroke-opacity:0.06521738;marker:none;enable-background:accumulate" />
        <path
           inkscape:connector-curvature="0"
           d="m 53.1,988.46218 v -1.8"
           id="path5506"
           style="color:#000000;display:inline;overflow:visible;visibility:visible;fill:none;stroke:#000000;stroke-width:0.44999999;stroke-linecap:round;stroke-linejoin:miter;stroke-miterlimit:4;stroke-dasharray:none;stroke-dashoffset:0;stroke-opacity:0.06521738;marker:none;enable-background:accumulate" />
        <path
           inkscape:connector-curvature="0"
           d="m 53.1,981.26218 v -1.8"
           id="path5508"
           style="color:#000000;display:inline;overflow:visible;visibility:visible;fill:none;stroke:#000000;stroke-width:0.44999999;stroke-linecap:round;stroke-linejoin:miter;stroke-miterlimit:4;stroke-dasharray:none;stroke-dashoffset:0;stroke-opacity:0.06521738;marker:none;enable-background:accumulate" />
      </g>
    </g>
  </g>
</svg>
