<?xml version="1.0" encoding="UTF-8" standalone="no"?>
<svg
   xmlns:dc="http://purl.org/dc/elements/1.1/"
   xmlns:cc="http://creativecommons.org/ns#"
   xmlns:rdf="http://www.w3.org/1999/02/22-rdf-syntax-ns#"
   xmlns:svg="http://www.w3.org/2000/svg"
   xmlns="http://www.w3.org/2000/svg"
   xmlns:sodipodi="http://sodipodi.sourceforge.net/DTD/sodipodi-0.dtd"
   xmlns:inkscape="http://www.inkscape.org/namespaces/inkscape"
   version="1.1"
   width="147.60001"
   height="81"
   id="svg66"
   sodipodi:docname="base-grove-sensor.svg"
   inkscape:version="0.92.3 (2405546, 2018-03-11)">
  <defs
     id="defs70" />
  <sodipodi:namedview
     pagecolor="#ffffff"
     bordercolor="#666666"
     borderopacity="1"
     objecttolerance="10"
     gridtolerance="10"
     guidetolerance="10"
     inkscape:pageopacity="0"
     inkscape:pageshadow="2"
     inkscape:window-width="1920"
     inkscape:window-height="1028"
     id="namedview68"
     showgrid="false"
     inkscape:zoom="9.647696"
     inkscape:cx="85.490677"
     inkscape:cy="32.78475"
     inkscape:window-x="1912"
     inkscape:window-y="-8"
     inkscape:window-maximized="1"
     inkscape:current-layer="g4758" />
  <metadata
     id="metadata13579">
    <rdf:RDF>
      <cc:Work
         rdf:about="">
        <dc:format>image/svg+xml</dc:format>
        <dc:type
           rdf:resource="http://purl.org/dc/dcmitype/StillImage" />
        <dc:title />
      </cc:Work>
    </rdf:RDF>
  </metadata>
  <g
     transform="translate(0,-971.3597)"
     id="layer1">
    <g
       id="g4758"
       transform="matrix(0,1,-1,0,1054.566,976.43782)">
      <path
         id="rect2992"
         d="M 2.8125,-64.25 C 1.2421101,-64.25 0,-63.00789 0,-61.4375 l 0,27 c -3.0996601,0 -5.625,2.4941 -5.625,5.59375 0,3.09966 2.5253399,5.625 5.625,5.625 L 0,-11.125 0,3.78125 0,9.40625 0,20.75 0,36.40625 c 3.0996591,0 5.59375,2.5254 5.59375,5.625 0,3.0997 -2.4940909,5.59375 -5.59375,5.59375 l 0,27 c 0,1.5704 1.2421062,2.8125 2.8125,2.8125 l 27,0 c 0,3.0996 2.525341,5.625 5.625,5.625 3.099659,0 5.59375,-2.5254 5.59375,-5.625 l 27,0 c 1.570394,0 2.8125,-1.2421 2.8125,-2.8125 l 0,-27 c -3.099659,0 -5.59375,-2.49405 -5.59375,-5.59375 0,-3.0996 2.494091,-5.625 5.59375,-5.625 l 0,-12.09375 0,-14.90625 0,-5.625 0,-18.4375 0,-8.5625 c 3.0996,0 5.625,-2.52534 5.625,-5.625 0,-3.09965 -2.5254,-5.59375 -5.625,-5.59375 l 0,-27 c 0,-1.57039 -1.2421,-2.8125 -2.8125,-2.8125 l -27,0 c 0,3.09966 -2.49405,5.59375 -5.59375,5.59375 -3.0996,0 -5.625,-2.49409 -5.625,-5.59375 l -27,0 z M 0,-32.09375 c 1.7945401,0 3.25,1.45547 3.25,3.25 0,1.79454 -1.4554599,3.25 -3.25,3.25 -1.79454,0 -3.25,-1.45546 -3.25,-3.25 0,-1.79453 1.45546,-3.25 3.25,-3.25 z m 70.84375,0 c 1.7945,0 3.25,1.45547 3.25,3.25 0,1.79454 -1.4555,3.25 -3.25,3.25 -1.7946,0 -3.21875,-1.45546 -3.21875,-3.25 0,-1.79453 1.42415,-3.25 3.21875,-3.25 z M 35.4375,74.21875 c 1.794539,0 3.25,1.42415 3.25,3.21875 0,1.7945 -1.455461,3.25 -3.25,3.25 -1.794539,0 -3.25,-1.4555 -3.25,-3.25 0,-1.7946 1.455461,-3.21875 3.25,-3.21875 z"
         transform="translate(0,971.3597)"
         fill="#274a88" />
      <g
         id="g102"
         transform="matrix(0,-1.2499976,1.2499976,0,-1259.9704,1062.5138)">
        <path
           id="connector3pin"
           d="m 15.662983,1029.8187 0,-2.2677 2.267515,0 0,2.2677 -2.267515,0 z"
           fill="#ffe500" />
        <path
           id="connector2pin"
           d="m 17.930539,1033.1832 0,2.2677 -2.267556,0 0,-2.2677 2.267556,0 z"
           fill="#ffe500" />
        <path
           id="connector1pin"
           d="m 15.662983,1038.9076 2.267515,0 0,2.2677 -2.267515,0 0,-2.2677 z"
           fill="#ffe500" />
        <path
           id="connector0pin"
           d="m 15.662983,1044.5859 2.267515,0 0,2.2677 -2.267515,0 0,-2.2677 z"
           fill="#ffe500" />
      </g>
      <text
         id="tspan11445"
         x="33.579144"
         y="-29.868372"
         font-size="3.2"
         transform="matrix(0,-1.25,1.25,0,86.101169,1081.3743)"
         style="font-size:3.20000005px;font-family:OCRA;fill:#ffffff">SIG</text>
      <text
         id="tspan11445-6"
         x="33.579144"
         y="-35.621315"
         font-size="3.2"
         transform="matrix(0,-1.25,1.25,0,86.101169,1081.3743)"
         style="font-size:3.20000005px;font-family:OCRA;fill:#ffffff">NC</text>
      <text
         id="tspan11445-1"
         x="33.579144"
         y="-41.37426"
         font-size="3.2"
         transform="matrix(0,-1.25,1.25,0,86.101169,1081.3743)"
         style="font-size:3.20000005px;font-family:OCRA;fill:#ffffff">VCC</text>
      <text
         id="tspan11445-7"
         x="33.579144"
         y="-47.127209"
         font-size="3.2"
         transform="matrix(0,-1.25,1.25,0,86.101169,1081.3743)"
         style="font-size:3.20000005px;font-family:OCRA;fill:#ffffff">GND</text>
      <text
         id="tspan11445-74"
         x="33.579144"
         y="-29.868372"
         font-size="3.2"
         transform="matrix(0,-1.25,1.25,0,100.2744,1042.3979)"
         style="font-size:3.20000005px;font-family:OCRA;fill:#ffffff">Grove - DS18B20</text>
      <g
         transform="rotate(-90,507.27456,491.35716)"
         id="icon"
         inkscape:transform-center-x="1.2438203"
         inkscape:transform-center-y="4.353371">
        <path
           style="fill:#8c8c8c"
           inkscape:connector-curvature="0"
           id="pins"
           d="M 28.147,31.763 V 18.306 C 28.143,17.842 28.032,17.66 27.946,17.571 v 0 c -0.089,-0.085 -0.268,-0.215 -0.81,-0.221 v 0 H 4.581 C 4.276,17.348 4.082,17.389 4,17.42 v 0 c -0.074,0.016 -0.058,0.028 -0.062,0.026 v 0 c 0,0 -0.012,0.013 -0.031,0.076 v 0 c -0.027,0.08 -0.058,0.249 -0.058,0.503 v 0 13.737 h -2.7 V 18.025 C 1.147,17.147 1.342,16.214 2.047,15.52 v 0 c 0.708,-0.686 1.636,-0.872 2.534,-0.872 v 0 h 22.556 c 1.032,-0.006 2.037,0.315 2.735,1.03 v 0 c 0.7,0.712 0.982,1.683 0.977,2.626 v 0 l 0.002,13.457 h -2.704 z" />
        <path
           style="fill:#d9b477"
           inkscape:connector-curvature="0"
           id="body"
           d="M 9.661,12.124 C 9.211,11.919 8.437,11.751 7.942,11.751 H 5.453 c -0.495,0 -0.9,0.405 -0.9,0.9 v 6.697 c 0,0.495 0.405,0.9 0.9,0.9 h 2.488 c 0.495,0 1.269,-0.168 1.719,-0.373 l 0.092,-0.042 c 0.451,-0.205 1.224,-0.373 1.719,-0.373 h 8.981 c 0.494,0 1.268,0.168 1.719,0.373 l 0.094,0.042 c 0.45,0.205 1.224,0.373 1.719,0.373 h 2.488 c 0.494,0 0.9,-0.405 0.9,-0.9 v -6.697 c 0,-0.495 -0.406,-0.9 -0.9,-0.9 h -2.488 c -0.495,0 -1.27,0.167 -1.719,0.372 l -0.094,0.042 c -0.45,0.205 -1.225,0.372 -1.719,0.372 h -8.981 c -0.495,0 -1.269,-0.167 -1.719,-0.372 z" />
        <rect
           style="fill:#ad9f4e"
           id="gold_band"
           x="24.382999"
           y="11.751"
           width="0.87099999"
           height="8.4980001" />
        <path
           style="fill:#ffd500"
           inkscape:connector-curvature="0"
           id="band_1_st"
           d="M 10.141,12.309 C 9.997,12.265 9.866,12.216 9.753,12.165 L 9.661,12.124 C 9.211,11.919 8.437,11.751 7.942,11.751 H 7.833 v 8.498 h 0.109 c 0.495,0 1.269,-0.168 1.719,-0.373 l 0.092,-0.042 c 0.112,-0.051 0.244,-0.1 0.388,-0.145 z" />
        <rect
           style="fill:#8210d2"
           id="band_2_nd"
           x="12.449"
           y="12.537"
           width="2.309"
           height="6.9239998" />
        <rect
           style="fill:#c40808"
           id="band_3_rd_multiplier"
           x="17.066999"
           y="12.537"
           width="2.309"
           height="6.9239998" />
        <path
           style="opacity:0.3"
           inkscape:connector-curvature="0"
           id="Shadow"
           d="m 26.49,16.613 v 0 c 0,0.479 -0.164,0.871 -0.365,0.871 h -2.407 c -0.479,0 -1.226,-0.069 -1.662,-0.152 l -0.089,-0.018 c -0.437,-0.082 -1.186,-0.15 -1.664,-0.15 h -8.682 c -0.478,0 -1.226,0.068 -1.662,0.15 L 9.87,17.332 C 9.435,17.415 8.687,17.484 8.208,17.484 H 7.815 6.566 6.183 c -0.479,0 -0.87,0.365 -0.87,0.81 v 0.304 0.197 0.22 c 0,0.446 0.391,0.811 0.87,0.811 h 2.025 c 0.479,0 1.227,-0.151 1.662,-0.335 l 0.089,-0.037 c 0.436,-0.186 1.184,-0.336 1.662,-0.336 h 8.682 c 0.479,0 1.228,0.15 1.664,0.336 l 0.089,0.037 c 0.437,0.184 1.183,0.335 1.662,0.335 h 2.784 c 0.479,0 0.871,-0.364 0.871,-0.811 v -0.679 -1.218 -2.307 c -0.348,0.15 -0.883,0.525 -0.883,1.802 z" />
        <rect
           style="opacity:0.4"
           id="ShadowExtra"
           x="24.382999"
           y="15.861"
           width="0.87099999"
           height="3.938" />
        <path
           style="opacity:0.25;fill:#ffffff"
           inkscape:connector-curvature="0"
           id="ReflexRight"
           d="m 21.541,12.863 c 0.29,0 0.613,-0.127 0.83,-0.213 0.251,-0.1 0.717,-0.183 1.209,-0.183 h 1.828 c 0.281,0 0.281,0.31 0.281,0.464 0,0.154 -0.014,0.478 -0.281,0.478 h -3.823 c -0.136,0 -0.283,-0.141 -0.283,-0.281 0,-0.097 0.086,-0.265 0.239,-0.265 z" />
        <circle
           style="opacity:0.35;fill:#ffffff"
           id="ReflexLeft"
           cx="5.6059999"
           cy="12.923"
           r="0.54100001" />
        <rect
           style="opacity:0.5;fill:#ffff33"
           id="Reflex_gold"
           x="24.382999"
           y="12.036"
           width="0.87099999"
           height="2.0250001" />
        <rect
           style="opacity:0.5;fill:#ffffff"
           id="Reflex_extra"
           x="24.382999"
           y="12.486"
           width="0.87099999"
           height="0.93800002" />
      </g>
    </g>
    <g
       id="g4901"
       transform="matrix(1 0 0 1 26.560003 993.42819)" />
  </g>
  <g
     transform="translate(63.24064,24.209926)"
     id="breadboard">
    <g
       id="g72">
      <g
         id="g34" />
      <g
         id="g38" />
      <g
         id="g42" />
      <g
         id="g46" />
      <g
         id="g50" />
      <g
         id="g54" />
      <g
         id="g58" />
      <g
         id="g62" />
      <g
         id="g66" />
      <g
         id="g70" />
    </g>
  </g>
  <text
     xml:space="preserve"
     style="font-style:normal;font-weight:normal;font-size:40px;line-height:1.25;font-family:sans-serif;letter-spacing:0px;word-spacing:0px;fill:#000000;fill-opacity:1;stroke:none"
     x="38.558426"
     y="33.320225"
     id="text34"><tspan
       sodipodi:role="line"
       id="tspan32"
       x="38.558426"
       y="69.813438"
       style="font-size:26.66666603px;fill:#ffffff" /></text>
  <text
     xml:space="preserve"
     style="font-style:normal;font-weight:normal;font-size:40px;line-height:1.25;font-family:sans-serif;letter-spacing:0px;word-spacing:0px;fill:#000000;fill-opacity:1;stroke:none"
     x="39.80225"
     y="56.123592"
     id="text38"><tspan
       sodipodi:role="line"
       id="tspan36"
       x="39.80225"
       y="92.616806"
       style="font-size:26.66666603px;fill:#ffffff" /></text>
  <g
     style="display:inline"
     id="layer6"
     transform="translate(102.284,30.298965)">
    <g
       id="g213067">
      <path
         inkscape:connector-curvature="0"
         style="color:#000000;display:inline;overflow:visible;visibility:visible;fill:none;stroke:#8c8c8c;stroke-width:2.16000009;stroke-linecap:round;stroke-linejoin:round;stroke-miterlimit:4;stroke-dasharray:none;stroke-dashoffset:0;stroke-opacity:1;marker:none;enable-background:accumulate"
         id="path212445"
         d="m 1.7999999,15.104998 5.3999999,-5.4 V 6.104999" />
      <line
         style="fill:none;stroke:#8c8c8c;stroke-width:2.16000009;stroke-linecap:round"
         id="connector3leg"
         y1="15.105"
         x1="1.7999998"
         y2="22.281998"
         x2="1.7999998" />
      <line
         style="fill:none;stroke:#8c8c8c;stroke-width:2.16000009;stroke-linecap:round"
         id="connector2leg"
         y1="15.105"
         x1="10.8"
         y2="22.281998"
         x2="10.8" />
      <line
         style="fill:none;stroke:#8c8c8c;stroke-width:2.16000009;stroke-linecap:round"
         id="connector1leg"
         y1="15.105"
         x1="19.799999"
         y2="22.281998"
         x2="19.799999" />
      <rect
         width="2.154"
         x="9.717"
         y="5.7539968"
         height="9.3509998"
         style="fill:#8c8c8c"
         id="rect9506" />
      <rect
         width="13.278"
         x="4.1549997"
         y="-4.3180008"
         height="10.07"
         style="fill:#1a1a1a"
         id="rect9553" />
      <path
         inkscape:connector-curvature="0"
         style="fill:#141414"
         id="path9555"
         d="m 16.428,-4.3180015 v 2.4529996 8.2279999 1.842999 c 0.633,-0.713999 1.005,-1.553999 1.005,-2.452999 v 0 -10.0709995 z" />
      <path
         inkscape:connector-curvature="0"
         style="fill:#242424"
         id="path9557"
         d="m 5.1609994,-4.3180015 h -1.005 v 10.0699995 0 c 0,0.899 0.373,1.739 1.005,2.452999 V 6.361998 -1.8650019 Z" />
      <path
         inkscape:connector-curvature="0"
         style="fill:#1f1f1f"
         id="path9559"
         d="m 4.1549994,-4.3180015 v 0 c 0,0.899 0.373,1.74 1.005,2.4529996 H 16.436 c 0.632,-0.7129996 1.005,-1.5539996 1.005,-2.4529996 v 0 z" />
      <path
         inkscape:connector-curvature="0"
         style="fill:#141414"
         id="path9561"
         d="m 10.794999,-8.9770015 c -3.6679996,0 -6.6399996,2.086 -6.6399996,4.661 H 17.433 c 0,-2.575 -2.97,-4.661 -6.638001,-4.661 z" />
      <path
         inkscape:connector-curvature="0"
         style="color:#000000;display:inline;overflow:visible;visibility:visible;fill:none;stroke:#8c8c8c;stroke-width:2.16000009;stroke-linecap:round;stroke-linejoin:round;stroke-miterlimit:4;stroke-dasharray:none;stroke-dashoffset:0;stroke-opacity:1;marker:none;enable-background:accumulate"
         id="path212957"
         d="m 19.8,15.104998 -5.4,-5.4 V 6.104999" />
      <rect
         width="11.276"
         x="5.1609998"
         y="-1.8650026"
         height="10.07"
         id="rect9563" />
      <g
         style="font-size:3px;font-family:OCRA;fill:#e6e6e6"
         id="label0">
        <text
           x="10.757889"
           y="2.4170942"
           style="font-style:normal;font-variant:normal;font-weight:normal;font-stretch:normal;font-family:'OCR A Std';-inkscape-font-specification:'OCR A Std';text-align:center;text-anchor:middle"
           id="tspan150901">DS18</text>
      </g>
      <g
         style="font-size:3px;font-family:OCRA;fill:#e6e6e6"
         id="label0_1_">
        <text
           x="7.5303779"
           y="5.4636621"
           style="font-style:normal;font-variant:normal;font-weight:normal;font-stretch:normal;font-family:'OCR A Std';-inkscape-font-specification:'OCR A Std'"
           id="tspan150907">B20</text>
      </g>
      <path
         inkscape:connector-curvature="0"
         style="color:#000000;display:inline;overflow:visible;visibility:visible;fill:none;stroke:#8c8c8c;stroke-width:2.16000009;stroke-linecap:round;stroke-linejoin:miter;stroke-miterlimit:4;stroke-dasharray:none;stroke-dashoffset:0;stroke-opacity:0;marker:none;enable-background:accumulate"
         id="connector3pin-6"
         d="m 1.8,32.400001 v 1.8"
         transform="translate(-1.3401714e-7,-10.118)" />
      <path
         inkscape:connector-curvature="0"
         style="color:#000000;display:inline;overflow:visible;visibility:visible;fill:none;stroke:#8c8c8c;stroke-width:2.16000009;stroke-linecap:round;stroke-linejoin:miter;stroke-miterlimit:4;stroke-dasharray:none;stroke-dashoffset:0;stroke-opacity:0;marker:none;enable-background:accumulate"
         id="connector2pin-6"
         d="m 10.8,32.400001 v 1.8"
         transform="translate(-1.3401714e-7,-10.118)" />
      <path
         inkscape:connector-curvature="0"
         style="color:#000000;display:inline;overflow:visible;visibility:visible;fill:none;stroke:#8c8c8c;stroke-width:2.16000009;stroke-linecap:round;stroke-linejoin:miter;stroke-miterlimit:4;stroke-dasharray:none;stroke-dashoffset:0;stroke-opacity:0;marker:none;enable-background:accumulate"
         id="connector1pin-7"
         d="m 19.8,32.400001 v 1.8"
         transform="translate(-1.3401714e-7,-10.118)" />
    </g>
  </g>
</svg>
