<?xml version="1.0" encoding="UTF-8" standalone="no"?>
<svg
   xmlns:dc="http://purl.org/dc/elements/1.1/"
   xmlns:cc="http://creativecommons.org/ns#"
   xmlns:rdf="http://www.w3.org/1999/02/22-rdf-syntax-ns#"
   xmlns:svg="http://www.w3.org/2000/svg"
   xmlns="http://www.w3.org/2000/svg"
   xmlns:sodipodi="http://sodipodi.sourceforge.net/DTD/sodipodi-0.dtd"
   xmlns:inkscape="http://www.inkscape.org/namespaces/inkscape"
   version="1.1"
   width="147.60001"
   height="81"
   id="svg66"
   sodipodi:docname="grove_4digit_display_breadboard.svg"
   inkscape:version="0.92.3 (2405546, 2018-03-11)">
  <defs
     id="defs70" />
  <sodipodi:namedview
     pagecolor="#ffffff"
     bordercolor="#666666"
     borderopacity="1"
     objecttolerance="10"
     gridtolerance="10"
     guidetolerance="10"
     inkscape:pageopacity="0"
     inkscape:pageshadow="2"
     inkscape:window-width="1920"
     inkscape:window-height="1058"
     id="namedview68"
     showgrid="false"
     inkscape:zoom="6.8219513"
     inkscape:cx="48.606323"
     inkscape:cy="42.890777"
     inkscape:window-x="-8"
     inkscape:window-y="-8"
     inkscape:window-maximized="1"
     inkscape:current-layer="svg66" />
  <metadata
     id="metadata13579">
    <rdf:RDF>
      <cc:Work
         rdf:about="">
        <dc:format>image/svg+xml</dc:format>
        <dc:type
           rdf:resource="http://purl.org/dc/dcmitype/StillImage" />
      </cc:Work>
    </rdf:RDF>
  </metadata>
  <g
     transform="translate(0,-971.3597)"
     id="layer1">
    <g
       id="g4758"
       transform="matrix(0,1,-1,0,1054.566,976.43782)">
      <path
         id="rect2992"
         d="M 2.8125,-64.25 C 1.2421101,-64.25 0,-63.00789 0,-61.4375 l 0,27 c -3.0996601,0 -5.625,2.4941 -5.625,5.59375 0,3.09966 2.5253399,5.625 5.625,5.625 L 0,-11.125 0,3.78125 0,9.40625 0,20.75 0,36.40625 c 3.0996591,0 5.59375,2.5254 5.59375,5.625 0,3.0997 -2.4940909,5.59375 -5.59375,5.59375 l 0,27 c 0,1.5704 1.2421062,2.8125 2.8125,2.8125 l 27,0 c 0,3.0996 2.525341,5.625 5.625,5.625 3.099659,0 5.59375,-2.5254 5.59375,-5.625 l 27,0 c 1.570394,0 2.8125,-1.2421 2.8125,-2.8125 l 0,-27 c -3.099659,0 -5.59375,-2.49405 -5.59375,-5.59375 0,-3.0996 2.494091,-5.625 5.59375,-5.625 l 0,-12.09375 0,-14.90625 0,-5.625 0,-18.4375 0,-8.5625 c 3.0996,0 5.625,-2.52534 5.625,-5.625 0,-3.09965 -2.5254,-5.59375 -5.625,-5.59375 l 0,-27 c 0,-1.57039 -1.2421,-2.8125 -2.8125,-2.8125 l -27,0 c 0,3.09966 -2.49405,5.59375 -5.59375,5.59375 -3.0996,0 -5.625,-2.49409 -5.625,-5.59375 l -27,0 z M 0,-32.09375 c 1.7945401,0 3.25,1.45547 3.25,3.25 0,1.79454 -1.4554599,3.25 -3.25,3.25 -1.79454,0 -3.25,-1.45546 -3.25,-3.25 0,-1.79453 1.45546,-3.25 3.25,-3.25 z m 70.84375,0 c 1.7945,0 3.25,1.45547 3.25,3.25 0,1.79454 -1.4555,3.25 -3.25,3.25 -1.7946,0 -3.21875,-1.45546 -3.21875,-3.25 0,-1.79453 1.42415,-3.25 3.21875,-3.25 z M 35.4375,74.21875 c 1.794539,0 3.25,1.42415 3.25,3.21875 0,1.7945 -1.455461,3.25 -3.25,3.25 -1.794539,0 -3.25,-1.4555 -3.25,-3.25 0,-1.7946 1.455461,-3.21875 3.25,-3.21875 z"
         transform="translate(0,971.3597)"
         fill="#274a88" />
      <g
         id="g102"
         transform="matrix(0,-1.2499976,1.2499976,0,-1259.9704,1062.5138)">
        <path
           id="connector3pin"
           d="m 15.662983,1029.8187 0,-2.2677 2.267515,0 0,2.2677 -2.267515,0 z"
           fill="#ffe500" />
        <path
           id="connector2pin"
           d="m 17.930539,1033.1832 0,2.2677 -2.267556,0 0,-2.2677 2.267556,0 z"
           fill="#ffe500" />
        <path
           id="connector1pin"
           d="m 15.662983,1038.9076 2.267515,0 0,2.2677 -2.267515,0 0,-2.2677 z"
           fill="#ffe500" />
        <path
           id="connector0pin"
           d="m 15.662983,1044.5859 2.267515,0 0,2.2677 -2.267515,0 0,-2.2677 z"
           fill="#ffe500" />
      </g>
      <text
         id="tspan11445"
         x="33.579144"
         y="-29.868372"
         font-size="3.2"
         transform="matrix(0,-1.25,1.25,0,86.101169,1081.3743)"
         font-family="OCRA"
         fill="#ffffff">GND</text>
      <text
         id="tspan11445-6"
         x="33.579144"
         y="-35.621315"
         font-size="3.2"
         transform="matrix(0,-1.25,1.25,0,86.101169,1081.3743)"
         font-family="OCRA"
         fill="#ffffff">VCC</text>
      <text
         id="tspan11445-1"
         x="33.579144"
         y="-41.37426"
         font-size="3.2"
         transform="matrix(0,-1.25,1.25,0,86.101169,1081.3743)"
         font-family="OCRA"
         fill="#ffffff">DIO</text>
      <text
         id="tspan11445-7"
         x="33.579144"
         y="-47.12721"
         font-size="3.2"
         transform="matrix(0,-1.25,1.25,0,86.101169,1081.3743)"
         font-family="OCRA"
         fill="#ffffff">CLK</text>
      <text
         id="tspan11445-74"
         x="33.579144"
         y="-29.868372"
         font-size="3.2"
         transform="matrix(0,-1.25,1.25,0,100.2744,1042.3979)"
         style="font-size:3.20000005px;font-family:OCRA;fill:#ffffff">Grove -BarLED</text>
    </g>
    <g
       id="g4901"
       transform="matrix(1 0 0 1 26.560003 993.42819)">
      <circle
         r="1.827"
         id="connector0pin-8"
         cx="31.927999"
         cy="32.722"
         stroke-width="0.489"
         stroke="#9a916c"
         fill="none" />
      <circle
         r="1.827"
         id="connector1pin-7"
         cx="39.128"
         cy="32.722"
         stroke-width="0.489"
         stroke="#9a916c"
         fill="none" />
      <circle
         r="1.827"
         id="connector2pin-1"
         cx="46.328"
         cy="32.722"
         stroke-width="0.489"
         stroke="#9a916c"
         fill="none" />
      <circle
         r="1.827"
         id="connector3pin-2"
         cx="53.528"
         cy="32.722"
         stroke-width="0.489"
         stroke="#9a916c"
         fill="none" />
      <circle
         r="1.827"
         id="connector4pin"
         cx="60.728001"
         cy="32.722"
         stroke-width="0.489"
         stroke="#9a916c"
         fill="none" />
      <circle
         r="1.827"
         id="connector5pin"
         cx="67.929001"
         cy="32.722"
         stroke-width="0.489"
         stroke="#9a916c"
         fill="none" />
      <circle
         r="1.827"
         id="connector7pin"
         cx="82.328"
         cy="32.722"
         stroke-width="0.489"
         stroke="#9a916c"
         fill="none" />
      <circle
         r="1.827"
         id="connector6pin"
         cx="75.128"
         cy="32.722"
         stroke-width="0.489"
         stroke="#9a916c"
         fill="none" />
      <circle
         r="1.827"
         id="connector8pin"
         cx="82.328"
         cy="3.922"
         stroke-width="0.489"
         stroke="#9a916c"
         fill="none" />
      <circle
         r="1.827"
         id="connector13pin"
         cx="46.328"
         cy="3.922"
         stroke-width="0.489"
         stroke="#9a916c"
         fill="none" />
      <circle
         r="1.827"
         id="connector12pin"
         cx="53.528"
         cy="3.922"
         stroke-width="0.489"
         stroke="#9a916c"
         fill="none" />
      <circle
         r="1.827"
         id="connector11pin"
         cx="60.728001"
         cy="3.922"
         stroke-width="0.489"
         stroke="#9a916c"
         fill="none" />
      <circle
         r="1.827"
         id="connector9pin"
         cx="75.128"
         cy="3.922"
         stroke-width="0.489"
         stroke="#9a916c"
         fill="none" />
      <circle
         r="1.827"
         id="connector10pin"
         cx="67.929001"
         cy="3.922"
         stroke-width="0.489"
         stroke="#9a916c"
         fill="none" />
      <circle
         r="1.827"
         id="connector14pin"
         cx="39.128"
         cy="3.922"
         stroke-width="0.489"
         stroke="#9a916c"
         fill="none" />
      <circle
         r="1.827"
         id="connector15pin"
         cx="31.927999"
         cy="3.922"
         stroke-width="0.489"
         stroke="#9a916c"
         fill="none" />
      <polygon
         points="114.48,36.863 1,36.863 0,35.556 0,0 113.365,0 114.48,1 "
         id="polygon20"
         fill="#323232" />
      <polygon
         points="0,35.556 1,36.863 114.48,36.863 113.48,35.556 "
         id="polygon92"
         fill="#c7c7c7" />
      <polygon
         points="114.48,36.863 114.48,1 113.365,0 113.365,35.556 "
         id="polygon94"
         fill="#aaaaaa" />
    </g>
  </g>
  <g
     transform="translate(63.24064,24.209926)"
     id="breadboard">
    <circle
       style="fill:none;stroke:#9a916c;stroke-width:0.25400001"
       id="connector0pin-3"
       cx="3.888"
       cy="25.488001"
       r="1.512" />
    <circle
       style="fill:none;stroke:#9a916c;stroke-width:0.25400001"
       id="connector1pin-1"
       cx="11.088"
       cy="25.488001"
       r="1.512" />
    <circle
       style="fill:none;stroke:#9a916c;stroke-width:0.25400001"
       id="connector6pin-2"
       cx="47.088001"
       cy="25.488001"
       r="1.512" />
    <circle
       style="fill:none;stroke:#9a916c;stroke-width:0.25400001"
       id="connector7pin-5"
       cx="54.287998"
       cy="25.488001"
       r="1.512" />
    <circle
       style="fill:none;stroke:#9a916c;stroke-width:0.25400001"
       id="connector2pin-9"
       cx="18.288"
       cy="25.488001"
       r="1.512" />
    <circle
       style="fill:none;stroke:#9a916c;stroke-width:0.25400001"
       id="connector3pin-8"
       cx="25.488001"
       cy="25.488001"
       r="1.512" />
    <circle
       style="fill:none;stroke:#9a916c;stroke-width:0.25400001"
       id="connector5pin-2"
       cx="39.888"
       cy="25.488001"
       r="1.512" />
    <circle
       style="fill:none;stroke:#9a916c;stroke-width:0.25400001"
       id="connector4pin-2"
       cx="32.688"
       cy="25.488001"
       r="1.512" />
    <circle
       style="fill:none;stroke:#9a916c;stroke-width:0.25400001"
       id="connector8pin-5"
       cx="61.487"
       cy="25.488001"
       r="1.512" />
    <circle
       style="fill:none;stroke:#9a916c;stroke-width:0.25400001"
       id="connector9pin-9"
       cx="68.688004"
       cy="25.488001"
       r="1.512" />
    <circle
       style="fill:none;stroke:#9a916c;stroke-width:0.25400001"
       id="connector10pin-9"
       cx="68.688004"
       cy="3.888"
       r="1.512" />
    <circle
       style="fill:none;stroke:#9a916c;stroke-width:0.25400001"
       id="connector11pin-4"
       cx="61.487"
       cy="3.888"
       r="1.512" />
    <circle
       style="fill:none;stroke:#9a916c;stroke-width:0.25400001"
       id="connector12pin-9"
       cx="54.287998"
       cy="3.888"
       r="1.512" />
    <circle
       style="fill:none;stroke:#9a916c;stroke-width:0.25400001"
       id="connector13pin-0"
       cx="47.088001"
       cy="3.888"
       r="1.512" />
    <circle
       style="fill:none;stroke:#9a916c;stroke-width:0.25400001"
       id="connector14pin-4"
       cx="39.888"
       cy="3.888"
       r="1.512" />
    <circle
       style="fill:none;stroke:#9a916c;stroke-width:0.25400001"
       id="connector15pin-7"
       cx="32.688"
       cy="3.888"
       r="1.512" />
    <circle
       style="fill:none;stroke:#9a916c;stroke-width:0.25400001"
       id="connector16pin"
       cx="25.488001"
       cy="3.888"
       r="1.512" />
    <circle
       style="fill:none;stroke:#9a916c;stroke-width:0.25400001"
       id="connector17pin"
       cx="18.288"
       cy="3.888"
       r="1.512" />
    <circle
       style="fill:none;stroke:#9a916c;stroke-width:0.25400001"
       id="connector18pin"
       cx="11.088"
       cy="3.888"
       r="1.512" />
    <circle
       style="fill:none;stroke:#9a916c;stroke-width:0.25400001"
       id="connector19pin"
       cx="3.888"
       cy="3.888"
       r="1.512" />
    <rect
       style="fill:#333333"
       x="0.044"
       y="0.064999998"
       width="71.295998"
       height="25.489"
       id="rect22" />
    <polygon
       style="fill:#cccccc"
       points="71.34,25.375 72.62,29.375 72.62,25.977 71.979,21.976 71.979,6.747 72.62,5.749 72.62,4.065 71.34,0.065 "
       id="polygon24" />
    <polygon
       style="fill:#808080"
       points="0.044,25.554 1.044,29.375 5.325,29.375 7.4,27.855 66.102,27.855 67.639,29.375 72.576,29.375 71.34,25.554 "
       id="polygon26" />
    <path
       style="opacity:0.2;fill:#993d3d"
       inkscape:connector-curvature="0"
       d="m 71.34,8.875 c 0,0 -10.302,-1 -20.927,-1 -10.625,0 -24.515,1.563 -32.695,1.563 -8.18,0 -17.756,-0.563 -17.756,-0.563 L 0.044,0.065 H 71.34 Z"
       id="path28" />
    <path
       style="opacity:0.2;fill:#4c0e0e"
       inkscape:connector-curvature="0"
       d="M 71.34,25.554 H 0.044 l 0.027,-6.929 c 0,0 9.93,0.896 19.729,0.896 11.688,0 25.477,-1.583 29.738,-1.583 7.834,0 21.802,0.667 21.802,0.667 z"
       id="path30" />
    <g
       id="g72">
      <g
         id="g34">
        <rect
           style="fill:#ff1000"
           x="64.723"
           y="5.5359998"
           width="4.9860001"
           height="14.549"
           id="rect32" />
      </g>
      <g
         id="g38">
        <rect
           style="fill:#e6e6e6"
           x="57.716999"
           y="5.5359998"
           width="4.9860001"
           height="14.549"
           id="rect36" />
      </g>
      <g
         id="g42">
        <rect
           style="fill:#ff1000"
           x="50.712002"
           y="5.5359998"
           width="4.9860001"
           height="14.549"
           id="rect40" />
      </g>
      <g
         id="g46">
        <rect
           style="fill:#e6e6e6"
           x="43.706001"
           y="5.5359998"
           width="4.9860001"
           height="14.549"
           id="rect44" />
      </g>
      <g
         id="g50">
        <rect
           style="fill:#ff1000"
           x="36.702"
           y="5.5359998"
           width="4.9860001"
           height="14.549"
           id="rect48" />
      </g>
      <g
         id="g54">
        <rect
           style="fill:#e6e6e6"
           x="29.695999"
           y="5.5359998"
           width="4.9860001"
           height="14.549"
           id="rect52" />
      </g>
      <g
         id="g58">
        <rect
           style="fill:#ff1000"
           x="22.691"
           y="5.5359998"
           width="4.9860001"
           height="14.549"
           id="rect56" />
      </g>
      <g
         id="g62">
        <rect
           style="fill:#e6e6e6"
           x="15.686"
           y="5.5359998"
           width="4.9860001"
           height="14.549"
           id="rect60" />
      </g>
      <g
         id="g66">
        <rect
           style="fill:#f2f2f2"
           x="8.6800003"
           y="5.5359998"
           width="4.9860001"
           height="14.549"
           id="rect64" />
      </g>
      <g
         id="g70">
        <rect
           style="fill:#ff1000"
           x="1.675"
           y="5.5359998"
           width="4.9860001"
           height="14.549"
           id="rect68" />
      </g>
    </g>
  </g>
</svg>
