<?xml version='1.0' encoding='UTF-8' standalone='no'?>
<svg xmlns="http://www.w3.org/2000/svg" height="45mm" width="44mm" version="1.1" gorn="0"  id="svg2">
    <desc >
        <referenceFile >Grove_OLED_96x96_PCB.svg</referenceFile>
    </desc>
    <defs  id="defs56"/>
    <metadata  id="metadata13579">
        <rdf:RDF xmlns:rdf="http://www.w3.org/1999/02/22-rdf-syntax-ns#">
            <cc:Work xmlns:rdf="http://www.w3.org/1999/02/22-rdf-syntax-ns#" xmlns:cc="http://creativecommons.org/ns#" rdf:about="">
                <dc:format xmlns:dc="http://purl.org/dc/elements/1.1/">image/svg+xml</dc:format>
                <dc:type xmlns:rdf="http://www.w3.org/1999/02/22-rdf-syntax-ns#" xmlns:dc="http://purl.org/dc/elements/1.1/" rdf:resource="http://purl.org/dc/dcmitype/StillImage"/>
                <dc:title xmlns:dc="http://purl.org/dc/elements/1.1/"/>
            </cc:Work>
        </rdf:RDF>
    </metadata>
    <g  transform="translate(0,67.322835)">
        <g >
            <g >
                <g >
                    <g style="display:inline" gorn="0.3.0.0.0.0"  id="layer1">
                        <g  transform="translate(0,-67.322835)">
                            <g >
                                <g >
                                    <g >
                                        <path style="display:inline;" stroke-opacity="1" d="m 113.41211,1.4628906 c -3.09966,0 -5.625,2.525342 -5.625,5.625 l -29.812501,0 -29.8125,0 c 0,3.0996604 -2.52535,5.5937504 -5.625,5.5937504 -3.09966,0 -5.59375,-2.49409 -5.59375,-5.5937504 l -26.9999996,0 c -1.570395,0 -2.8125,1.242107 -2.8125,2.8125 l 0,27.0000004 c -3.099659,0 -5.625,2.525341 -5.625,5.625 0,3.099659 2.525341,5.59375 5.625,5.59375 l 0,29.8125 c 0,1.570394 0,29.812499 0,29.812499 3.0996596,0 5.5937496,2.52534 5.5937496,5.625 0,3.09966 -2.49409,5.59375 -5.5937496,5.59375 l 0,27 c 0,1.57039 1.2421,2.8125 2.8125,2.8125 l 26.9999996,0 c 0,3.09966 2.49409,5.625 5.59375,5.625 3.09966,0 5.625,-2.52534 5.625,-5.625 l 29.8125,0 29.812501,0 c 0,-3.09966 2.52534,-5.59375 5.625,-5.59375 3.09966,0 5.59375,2.49409 5.59375,5.59375 l 27,0 c 1.57039,0 2.8125,-1.24211 2.8125,-2.8125 l 0,-27 c 3.09966,0 5.625,-2.49409 5.625,-5.59375 0,-3.09966 -2.52534,-5.625 -5.625,-5.625 l 0,-29.812499 c 0,-1.570393 0,-29.8125 0,-29.8125 -3.09966,0 -5.59375,-2.494091 -5.59375,-5.59375 0,-3.099658 2.49409,-5.625 5.59375,-5.625 l 0,-27.0000004 c 0,-1.570394 -1.2421,-2.8125 -2.8125,-2.8125 l -27,0 c 0,-3.099658 -2.49409,-5.625 -5.59375,-5.625 z m 0,2.375 c 1.79454,0 3.25,1.455462 3.25,3.25 0,1.794542 -1.45546,3.2500004 -3.25,3.2500004 -1.79454,0 -3.25,-1.4554584 -3.25,-3.2500004 0,-1.794538 1.45546,-3.25 3.25,-3.25 z M 7.1308594,39.275391 c 1.794539,0 3.2187496,1.455461 3.2187496,3.25 0,1.794539 -1.4242106,3.25 -3.2187496,3.25 -1.794539,0 -3.25,-1.455461 -3.25,-3.25 0,-1.794539 1.455461,-3.25 3.25,-3.25 z M 148.81836,110.11914 c 1.79454,0 3.25,1.45546 3.25,3.25 0,1.79454 -1.45546,3.25 -3.25,3.25 -1.79454,0 -3.21875,-1.45546 -3.21875,-3.25 0,-1.79454 1.42421,-3.25 3.21875,-3.25 z m -106.281251,35.4375 c 1.79454,0 3.25,1.42421 3.25,3.21875 0,1.79454 -1.45546,3.25 -3.25,3.25 -1.79454,0 -3.25,-1.45546 -3.25,-3.25 0,-1.79454 1.45546,-3.21875 3.25,-3.21875 z" gorn="0.3.0.0.0.0.0.0.0.0.0" stroke-width="1"  stroke="#000000" fill="none" id="silkscreen"/>
                                    </g>
                                </g>
                            </g>
                        </g>
                    </g>
                </g>
            </g>
        </g>
    </g>
    <g  transform="translate(0,67.322835)">
        <g >
            <g >
                <g >
                    <g style="display:inline" gorn="0.4.0.0.0.0"  id="layer4">
                        <g gorn="0.4.0.0.0.0.0"  id="copper0">
                            <g gorn="0.4.0.0.0.0.0.0"  id="copper1">
                                <path style="stroke-linecap:round;stroke-linejoin:round;stroke-miterlimit:4;stroke-dasharray:none;" stroke-opacity="1" d="m 25.646246,21.260299 a 2.7,2.7 0 0 0 2.701171,2.701172 2.7,2.7 0 0 0 2.699219,-2.701172 2.7,2.7 0 0 0 -2.699219,-2.699219 2.7,2.7 0 0 0 -2.701171,2.699219 z m 1.351562,0 a 1.35,1.35 0 0 1 1.349609,-1.34961 1.35,1.35 0 0 1 1.34961,1.34961 1.35,1.35 0 0 1 -1.34961,1.351562 1.35,1.35 0 0 1 -1.349609,-1.351562 z" gorn="0.4.0.0.0.0.0.0.0" stroke-width="0.72000003"  fill-opacity="1" stroke="none" fill="#f7bd13" id="connector1pin"/>
                                <path style="stroke-linecap:round;stroke-linejoin:round;stroke-miterlimit:4;stroke-dasharray:none;" stroke-opacity="1" d="m 25.646262,14.172249 a 2.7,2.7 0 0 0 2.701171,2.701172 2.7,2.7 0 0 0 2.699219,-2.701172 2.7,2.7 0 0 0 -2.699219,-2.699219 2.7,2.7 0 0 0 -2.701171,2.699219 z m 1.351562,0 a 1.35,1.35 0 0 1 1.349609,-1.34961 1.35,1.35 0 0 1 1.34961,1.34961 1.35,1.35 0 0 1 -1.34961,1.351562 1.35,1.35 0 0 1 -1.349609,-1.351562 z" gorn="0.4.0.0.0.0.0.0.1" stroke-width="0.72000003"  fill-opacity="1" stroke="none" fill="#f7bd13" id="connector2pin"/>
                                <path style="stroke-linecap:round;stroke-linejoin:round;stroke-miterlimit:4;stroke-dasharray:none;" stroke-opacity="1" d="m 25.646261,7.0856339 a 2.7,2.7 0 0 0 2.701172,2.701172 2.7,2.7 0 0 0 2.699219,-2.701172 2.7,2.7 0 0 0 -2.699219,-2.699219 2.7,2.7 0 0 0 -2.701172,2.699219 z m 1.351563,0 a 1.35,1.35 0 0 1 1.349609,-1.34961 1.35,1.35 0 0 1 1.34961,1.34961 1.35,1.35 0 0 1 -1.34961,1.351562 1.35,1.35 0 0 1 -1.349609,-1.351562 z" gorn="0.4.0.0.0.0.0.0.2" stroke-width="0.72000003"  fill-opacity="1" stroke="none" fill="#f7bd13" id="connector3pin"/>
                                <path style="stroke-linecap:round;stroke-linejoin:round;stroke-miterlimit:4;stroke-dasharray:none;" stroke-opacity="1" d="M 25.646262,-9.7962388e-4 A 2.7,2.7 0 0 0 28.347433,2.7001924 2.7,2.7 0 0 0 31.046652,-9.7962388e-4 2.7,2.7 0 0 0 28.347433,-2.7001986 2.7,2.7 0 0 0 25.646262,-9.7962388e-4 Z m 1.351562,0 A 1.35,1.35 0 0 1 28.347433,-1.3505896 1.35,1.35 0 0 1 29.697043,-9.7962388e-4 1.35,1.35 0 0 1 28.347433,1.3505824 1.35,1.35 0 0 1 26.997824,-9.7962388e-4 Z" gorn="0.4.0.0.0.0.0.0.3" stroke-width="0.72000003"  fill-opacity="1" stroke="none" fill="#f7bd13" id="connector4pin"/>
                            </g>
                        </g>
                    </g>
                </g>
            </g>
        </g>
    </g>
</svg>
