<?xml version="1.0" encoding="UTF-8" standalone="no"?>
<svg
   xmlns:dc="http://purl.org/dc/elements/1.1/"
   xmlns:cc="http://creativecommons.org/ns#"
   xmlns:rdf="http://www.w3.org/1999/02/22-rdf-syntax-ns#"
   xmlns:svg="http://www.w3.org/2000/svg"
   xmlns="http://www.w3.org/2000/svg"
   xmlns:sodipodi="http://sodipodi.sourceforge.net/DTD/sodipodi-0.dtd"
   xmlns:inkscape="http://www.inkscape.org/namespaces/inkscape"
   height="45mm"
   width="44mm"
   version="1.1"
   gorn="0"
   id="svg2"
   sodipodi:docname="Grove_generic_breaboard_moyen.svg"
   inkscape:version="0.92.3 (2405546, 2018-03-11)">
  <sodipodi:namedview
     pagecolor="#ffffff"
     bordercolor="#666666"
     borderopacity="1"
     objecttolerance="10"
     gridtolerance="10"
     guidetolerance="10"
     inkscape:pageopacity="0"
     inkscape:pageshadow="2"
     inkscape:window-width="1920"
     inkscape:window-height="1028"
     id="namedview73"
     showgrid="false"
     inkscape:zoom="5.5503704"
     inkscape:cx="115.1387"
     inkscape:cy="92.285915"
     inkscape:window-x="1912"
     inkscape:window-y="-8"
     inkscape:window-maximized="1"
     inkscape:current-layer="svg2" />
  <desc
     id="desc2">
    <referenceFile>Grove_OLED_Display_96x96.svg</referenceFile>
  </desc>
  <defs
     id="defs56" />
  <metadata
     id="metadata13579">
    <rdf:RDF>
      <cc:Work
         rdf:about="">
        <dc:format>image/svg+xml</dc:format>
        <dc:type
           rdf:resource="http://purl.org/dc/dcmitype/StillImage" />
        <dc:title></dc:title>
      </cc:Work>
    </rdf:RDF>
  </metadata>
  <g
     transform="translate(0,67.322835)"
     id="g14">
    <g
       id="g12">
      <g
         style="display:inline"
         gorn="0.3.0.0"
         id="layer1">
        <g
           transform="translate(0,-67.322835)"
           id="g9">
          <g
             id="g7">
            <path
               style="display:inline;fill:#274a88"
               d="m 113.41211,1.4628906 c -3.09966,0 -5.625,2.525342 -5.625,5.625 l -29.812501,0 -29.8125,0 c 0,3.0996604 -2.52535,5.5937504 -5.625,5.5937504 -3.09966,0 -5.59375,-2.49409 -5.59375,-5.5937504 l -26.9999996,0 c -1.570395,0 -2.8125,1.242107 -2.8125,2.8125 l 0,27.0000004 c -3.099659,0 -5.625,2.525341 -5.625,5.625 0,3.099659 2.525341,5.59375 5.625,5.59375 l 0,29.8125 c 0,1.570394 0,29.812499 0,29.812499 3.0996596,0 5.5937496,2.52534 5.5937496,5.625 0,3.09966 -2.49409,5.59375 -5.5937496,5.59375 l 0,27 c 0,1.57039 1.2421,2.8125 2.8125,2.8125 l 26.9999996,0 c 0,3.09966 2.49409,5.625 5.59375,5.625 3.09966,0 5.625,-2.52534 5.625,-5.625 l 29.8125,0 29.812501,0 c 0,-3.09966 2.52534,-5.59375 5.625,-5.59375 3.09966,0 5.59375,2.49409 5.59375,5.59375 l 27,0 c 1.57039,0 2.8125,-1.24211 2.8125,-2.8125 l 0,-27 c 3.09966,0 5.625,-2.49409 5.625,-5.59375 0,-3.09966 -2.52534,-5.625 -5.625,-5.625 l 0,-29.812499 c 0,-1.570393 0,-29.8125 0,-29.8125 -3.09966,0 -5.59375,-2.494091 -5.59375,-5.59375 0,-3.099658 2.49409,-5.625 5.59375,-5.625 l 0,-27.0000004 c 0,-1.570394 -1.2421,-2.8125 -2.8125,-2.8125 l -27,0 c 0,-3.099658 -2.49409,-5.625 -5.59375,-5.625 z m 0,2.375 c 1.79454,0 3.25,1.455462 3.25,3.25 0,1.794542 -1.45546,3.2500004 -3.25,3.2500004 -1.79454,0 -3.25,-1.4554584 -3.25,-3.2500004 0,-1.794538 1.45546,-3.25 3.25,-3.25 z M 7.1308594,39.275391 c 1.794539,0 3.2187496,1.455461 3.2187496,3.25 0,1.794539 -1.4242106,3.25 -3.2187496,3.25 -1.794539,0 -3.25,-1.455461 -3.25,-3.25 0,-1.794539 1.455461,-3.25 3.25,-3.25 z M 148.81836,110.11914 c 1.79454,0 3.25,1.45546 3.25,3.25 0,1.79454 -1.45546,3.25 -3.25,3.25 -1.79454,0 -3.21875,-1.45546 -3.21875,-3.25 0,-1.79454 1.42421,-3.25 3.21875,-3.25 z m -106.281251,35.4375 c 1.79454,0 3.25,1.42421 3.25,3.21875 0,1.79454 -1.45546,3.25 -3.25,3.25 -1.79454,0 -3.25,-1.45546 -3.25,-3.25 0,-1.79454 1.45546,-3.21875 3.25,-3.21875 z"
               gorn="0.3.0.0.0.0.0"
               id="Board" />
          </g>
        </g>
      </g>
    </g>
  </g>
  <g
     transform="translate(0,67.322835)"
     id="g61">
    <g
       id="g59">
      <g
         style="display:inline"
         gorn="0.5.0.0"
         id="layer3">
        <g
           style="font-style:normal;font-variant:normal;font-weight:normal;font-stretch:normal;line-height:125%;font-family:OCRA;-inkscape-font-specification:'OCRA, Normal';text-align:center;letter-spacing:0px;word-spacing:0px;writing-mode:lr-tb;text-anchor:middle;stroke-linecap:butt;stroke-linejoin:miter;"
           stroke-opacity="1"
           stroke-width="0.282222"
           font-size="1.5875"
           gorn="0.5.0.0.0"
           fill-opacity="1"
           xml:space="preserve"
           stroke="none"
           fill="#000000"
           id="Label_Main">
                    <text
   style="font-style:normal;font-variant:normal;font-weight:normal;font-stretch:normal;font-size:5.625px;line-height:125%;font-family:OCRA;-inkscape-font-specification:'OCRA, Normal';text-align:center;writing-mode:lr-tb;text-anchor:middle;fill:#ffffff"
   x="75.336548"
   gorn="0.5.0.0.0.0"
   y="-53.199238"
   id="tspan4400">Grove moyen</text>

                </g>        <g
           style="font-style:normal;font-variant:normal;font-weight:normal;font-stretch:normal;line-height:125%;font-family:OCRA;-inkscape-font-specification:'OCRA, Normal';text-align:end;letter-spacing:0px;word-spacing:0px;writing-mode:lr-tb;text-anchor:end;display:inline;stroke-linecap:butt;stroke-linejoin:miter;"
           stroke-opacity="1"
           stroke-width="0.282222"
           font-size="1.12889"
           gorn="0.5.0.0.1"
           fill-opacity="1"
           xml:space="preserve"
           stroke="none"
           fill="#000000"
           id="Label_VCC">
                    <text
   style="font-style:normal;font-variant:normal;font-weight:normal;font-stretch:normal;font-size:4.00000006px;line-height:125%;font-family:OCRA;-inkscape-font-specification:'OCRA, Normal';text-align:end;writing-mode:lr;text-anchor:end;fill:#ffffff"
   x="24.363949"
   gorn="0.5.0.0.1.0"
   y="8.6466131"
   id="tspan4303">VCC</text>

                </g>        <g
           style="font-style:normal;font-variant:normal;font-weight:normal;font-stretch:normal;line-height:125%;font-family:OCRA;-inkscape-font-specification:'OCRA, Normal';text-align:end;letter-spacing:0px;word-spacing:0px;writing-mode:lr-tb;text-anchor:end;display:inline;stroke-linecap:butt;stroke-linejoin:miter;"
           stroke-opacity="1"
           stroke-width="0.282222"
           font-size="1.12889"
           gorn="0.5.0.0.2"
           fill-opacity="1"
           xml:space="preserve"
           stroke="none"
           fill="#000000"
           id="Label_SDA">
                    <text
   style="font-style:normal;font-variant:normal;font-weight:normal;font-stretch:normal;font-size:4px;line-height:125%;font-family:OCRA;-inkscape-font-specification:'OCRA, Normal';text-align:end;writing-mode:lr-tb;text-anchor:end;fill:#ffffff"
   x="24.359947"
   gorn="0.5.0.0.2.0"
   y="15.733228"
   id="tspan43">SDA</text>

                </g>        <g
           style="font-style:normal;font-variant:normal;font-weight:normal;font-stretch:normal;line-height:125%;font-family:OCRA;-inkscape-font-specification:'OCRA, Normal';text-align:start;letter-spacing:0px;word-spacing:0px;writing-mode:lr-tb;text-anchor:start;display:inline;stroke-linecap:butt;stroke-linejoin:miter;"
           stroke-opacity="1"
           stroke-width="0.282222"
           font-size="1.12889"
           gorn="0.5.0.0.3"
           fill-opacity="1"
           xml:space="preserve"
           stroke="none"
           fill="#000000"
           id="Label_SCL">
                    <text
   style="font-style:normal;font-variant:normal;font-weight:normal;font-stretch:normal;font-size:4px;line-height:125%;font-family:OCRA;-inkscape-font-specification:'OCRA, Normal';text-align:end;writing-mode:lr-tb;text-anchor:end;fill:#ffffff"
   x="24.363949"
   gorn="0.5.0.0.3.0"
   y="22.819841"
   id="tspan46">SCL</text>

                </g>        <g
           style="font-style:normal;font-variant:normal;font-weight:normal;font-stretch:normal;line-height:125%;font-family:OCRA;-inkscape-font-specification:'OCRA, Normal';text-align:end;letter-spacing:0px;word-spacing:0px;writing-mode:lr-tb;text-anchor:end;display:inline;stroke-linecap:butt;stroke-linejoin:miter;"
           stroke-opacity="1"
           stroke-width="0.282222"
           font-size="1.12889"
           gorn="0.5.0.0.4"
           fill-opacity="1"
           xml:space="preserve"
           stroke="none"
           fill="#ffffff"
           id="Label_GND">
                    <text
   style="font-style:normal;font-variant:normal;font-weight:normal;font-stretch:normal;font-size:4px;line-height:125%;font-family:OCRA;-inkscape-font-specification:'OCRA, Normal';text-align:end;writing-mode:lr-tb;text-anchor:end"
   x="24.363949"
   gorn="0.5.0.0.4.0"
   y="1.5599993"
   id="tspan4197">GND</text>

                </g>      </g>
    </g>
  </g>
  <g
     transform="translate(0,67.322835)"
     id="g70">
    <g
       id="g68">
      <g
         style="display:inline"
         gorn="0.6.0.0"
         id="layer4">
        <path
           style="display:inline;stroke-linejoin:round"
           d="m 27.459273,22.148524 0,-1.774496 1.774335,0 0,1.774496 -1.774335,0 z"
           stroke-width="0.10999979"
           gorn="0.6.0.0.0"
           stroke="#000000"
           fill="#ffe500"
           id="connector1pin" />
        <path
           style="display:inline;stroke-linejoin:round"
           d="m 29.233624,13.28598 0,1.774497 -1.774335,0 0,-1.774497 1.774335,0 z"
           stroke-width="0.10999979"
           gorn="0.6.0.0.1"
           stroke="#000000"
           fill="#ffe500"
           id="connector2pin" />
        <path
           style="display:inline;stroke-linejoin:round"
           d="m 27.459289,6.199365 1.774335,0 0,1.774497 -1.774335,0 0,-1.774497 z"
           stroke-width="0.10999979"
           gorn="0.6.0.0.2"
           stroke="#000000"
           fill="#ffe500"
           id="connector3pin" />
        <path
           style="display:inline;stroke-linejoin:round"
           d="m 27.459289,-0.887248 1.774335,0 0,1.774496 -1.774335,0 0,-1.774496 z"
           stroke-width="0.10999979"
           gorn="0.6.0.0.3"
           stroke="#000000"
           fill="#ffe500"
           id="connector4pin" />
      </g>
    </g>
  </g>
  <path
     inkscape:connector-curvature="0"
     style="display:inline;fill:none;fill-rule:evenodd;stroke:#ffffff;stroke-width:1;stroke-linecap:butt;stroke-linejoin:miter;stroke-miterlimit:4;stroke-dasharray:none;stroke-opacity:1"
     d="m 36.213798,95.747497 h 5.31496 v 3.543304 H 9.6389981 V 90.432537 H 13.182298 V 65.629387 H 9.6389981 V 56.771119 H 41.528758 v 3.543307 h -5.31496"
     gorn="0.4.0.0.0.2"
     id="path5134-0" />
</svg>
